<svg xmlns="http://www.w3.org/2000/svg" viewBox="0 0 100 100" fill="none">
  <defs>
    <linearGradient id="grad" x1="0%" y1="0%" x2="100%" y2="100%">
      <stop offset="0%" stop-color="#2563eb" />
      <stop offset="50%" stop-color="#3b82f6" />
      <stop offset="100%" stop-color="#8b5cf6" />
    </linearGradient>
    <filter id="glow" x="-20%" y="-20%" width="140%" height="140%">
      <feGaussianBlur stdDeviation="6" result="blur" />
      <feComposite in="SourceGraphic" in2="blur" operator="over" />
    </filter>
  </defs>
  <rect width="100" height="100" rx="28" fill="#0f172a" />
  <rect x="4" y="4" width="92" height="92" rx="24" fill="url(#grad)" opacity="0.15" />
  <path d="M68 36C64 31 58 28 50 28C37.85 28 28 37.85 28 50C28 62.15 37.85 72 50 72C58 72 64 69 68 64" stroke="url(#grad)" stroke-width="10" stroke-linecap="round" filter="url(#glow)" />
  <path d="M68 36C64 31 58 28 50 28C37.85 28 28 37.85 28 50C28 62.15 37.85 72 50 72C58 72 64 69 68 64" stroke="#ffffff" stroke-width="8" stroke-linecap="round" />
  <circle cx="68" cy="36" r="5" fill="#3b82f6" />
  <circle cx="68" cy="64" r="5" fill="#8b5cf6" />
</svg>
